# xmcd
#
# Track frame offsets:
#	151
#	12577
#	26424
#	42373
#	58472
#	78773
#	94275
#	115777
#	130453
#	147081
#
# Disc length: 2152 seconds
#
# Revision: 1
# Processed by: cddbd v1.5.2PL0 Copyright (c) Steve Scherf et al.
# Submitted via: audiograbber 1.83.01
#
DISCID=8708660a
DTITLE=Griffith and Cross - Griffith and Cross
DYEAR=1900
DGENRE=
TTITLE0=Driving Me Crazy
TTITLE1=Gone For Good
TTITLE2=With This Ring
TTITLE3=Last To Know
TTITLE4=More Than You Know
TTITLE5=Hard To Be Lonely
TTITLE6=Angels Don´t Always Have Wings
TTITLE7=Prove Me Wrong
TTITLE8=In Another Life
TTITLE9=Remember When
EXTD=
EXTT0=
EXTT1=
EXTT2=
EXTT3=
EXTT4=
EXTT5=
EXTT6=
EXTT7=
EXTT8=
EXTT9=
PLAYORDER=
